<svg width="457" height="172.26184012272404" viewBox="0 0 329 124.01344726559346" class="css-1j8o68f"><defs id="SvgjsDefs2459"></defs><g id="SvgjsG2460" featurekey="symbolContainer" transform="matrix(2.2051405184879713,0,0,2.2051405184879713,0.000016232746133134928,0.00920311390175491)" fill="#384259"><path xmlns="http://www.w3.org/2000/svg" d="M23.11 55.78L1.69 43.41A3.39 3.39 0 0 1 0 40.48V15.75a3.39 3.39 0 0 1 1.69-2.94L23.11.45a3.39 3.39 0 0 1 3.39 0l21.41 12.37a3.39 3.39 0 0 1 1.69 2.94v24.72a3.39 3.39 0 0 1-1.69 2.94L26.5 55.78a3.39 3.39 0 0 1-3.39 0z"></path></g><g id="SvgjsG2461" featurekey="symbolFeature-0" transform="matrix(0.9722222222222222,0,0,0.9722222222222222,10.734723409016928,9.359721554650202)" fill="#ffffff"><path xmlns="http://www.w3.org/2000/svg" d="M14.03,50.03l13.5,13.5l13.5-13.5l-13.5-13.5L14.03,50.03 M27.53,32.03l18,18l-18,18l-18-18L27.53,32.03" style="fill-rule: evenodd; clip-rule: evenodd;"></path><path xmlns="http://www.w3.org/2000/svg" d="M27.53,54.53l4.5-4.5l-4.5-4.5l-4.5,4.5L27.53,54.53 M18.53,50.03l9-9l9,9l-9,9L18.53,50.03" style="fill-rule: evenodd; clip-rule: evenodd;"></path><path xmlns="http://www.w3.org/2000/svg" d="M68.03,72.53l-18-18l-18,18l18,18L68.03,72.53 M72.53,72.53l-22.5,22.5l-22.5-22.5l22.5-22.5L72.53,72.53" style="fill-rule: evenodd; clip-rule: evenodd;"></path><path xmlns="http://www.w3.org/2000/svg" d="M59.03,72.53l-9-9l-9,9l9,9L59.03,72.53 M63.53,72.53l-13.5,13.5l-13.5-13.5l13.5-13.5L63.53,72.53" style="fill-rule: evenodd; clip-rule: evenodd;"></path><polyline xmlns="http://www.w3.org/2000/svg" points="54.53,72.53 50.03,77.03 45.53,72.53 50.03,68.03 54.53,72.53 " style="fill-rule: evenodd; clip-rule: evenodd;"></polyline><path xmlns="http://www.w3.org/2000/svg" d="M41.03,27.53l9,9l9-9l-9-9L41.03,27.53 M36.53,27.53l13.5-13.5l13.5,13.5l-13.5,13.5L36.53,27.53" style="fill-rule: evenodd; clip-rule: evenodd;"></path><polyline xmlns="http://www.w3.org/2000/svg" points="45.53,27.53 50.03,23.03 54.53,27.53 50.03,32.03 45.53,27.53 " style="fill-rule: evenodd; clip-rule: evenodd;"></polyline><path xmlns="http://www.w3.org/2000/svg" d="M72.53,45.53l-4.5,4.5l4.5,4.5l4.5-4.5L72.53,45.53 M81.53,50.03l-9,9l-9-9l9-9L81.53,50.03" style="fill-rule: evenodd; clip-rule: evenodd;"></path></g><g id="SvgjsG2462" featurekey="nameFeature-0" transform="matrix(0.9538344476635452,0,0,0.9538344476635452,129.64860760179246,34.88935631020229)" fill="#384259"><path d="M2.32 46.519999999999996 l-0.36 0 c-1.52 -0.04 -2.64 -0.68 -2.64 -2 c0 -1.2 0.88 -2 1.92 -2 c0.08 0 0.24 0.04 0.28 0.04 c1.08 0 1.8 -0.68 1.8 -2.28 l0 -19.2 c0 -1.36 1.04 -2.44 2.4 -2.44 s2.44 1.08 2.44 2.44 l0 19.2 c0 4.28 -2.28 6.24 -5.84 6.24 z M2.96 13.440000000000001 l0 -0.24 c0 -1.44 1.2 -2.36 2.76 -2.36 s2.76 0.92 2.76 2.36 l0 0.24 c0 1.44 -1.2 2.4 -2.76 2.4 s-2.76 -0.96 -2.76 -2.4 z M33.24 21.08 l0 16.72 c0 1.32 -1.08 2.4 -2.44 2.4 c-1.32 0 -2.44 -1.04 -2.44 -2.4 l0 -1.08 c-1.36 2 -3.32 3.72 -6.6 3.72 c-4.76 0 -7.52 -3.2 -7.52 -8.12 l0 -11.24 c0 -1.36 1.08 -2.44 2.4 -2.44 c1.36 0 2.44 1.08 2.44 2.44 l0 9.8 c0 3.28 1.64 5.12 4.52 5.12 c2.8 0 4.76 -1.92 4.76 -5.2 l0 -9.72 c0 -1.36 1.08 -2.44 2.44 -2.44 c1.32 0 2.44 1.08 2.44 2.44 z M39.28 37.8 l0 -16.72 c0 -1.36 1.04 -2.44 2.4 -2.44 s2.44 1.08 2.44 2.44 l0 1.04 c1.36 -1.96 3.32 -3.68 6.6 -3.68 c4.76 0 7.52 3.2 7.52 8.08 l0 11.28 c0 1.36 -1.04 2.4 -2.4 2.4 s-2.44 -1.04 -2.44 -2.4 l0 -9.8 c0 -3.28 -1.64 -5.16 -4.52 -5.16 c-2.8 0 -4.76 1.96 -4.76 5.24 l0 9.72 c0 1.36 -1.08 2.4 -2.44 2.4 c-1.32 0 -2.4 -1.04 -2.4 -2.4 z M64.08000000000001 37.8 l0 -16.72 c0 -1.36 1.04 -2.44 2.4 -2.44 s2.44 1.08 2.44 2.44 l0 1 c1.36 -1.88 3.2 -3.64 6.44 -3.64 c3.04 0 5.2 1.48 6.32 3.72 c1.68 -2.24 3.92 -3.72 7.12 -3.72 c4.6 0 7.4 2.92 7.4 8.08 l0 11.28 c0 1.36 -1.04 2.4 -2.4 2.4 s-2.44 -1.04 -2.44 -2.4 l0 -9.8 c0 -3.36 -1.56 -5.16 -4.28 -5.16 c-2.64 0 -4.52 1.84 -4.52 5.24 l0 9.72 c0 1.36 -1.08 2.4 -2.4 2.4 c-1.36 0 -2.44 -1.04 -2.44 -2.4 l0 -9.84 c0 -3.28 -1.6 -5.12 -4.28 -5.12 s-4.52 2 -4.52 5.24 l0 9.72 c0 1.36 -1.08 2.4 -2.44 2.4 c-1.32 0 -2.4 -1.04 -2.4 -2.4 z M112.12 40.48 c-6.44 0 -11.2 -4.92 -11.2 -10.92 l0 -0.08 c0 -6.04 4.8 -11.04 11.28 -11.04 s11.24 4.92 11.24 10.96 l0 0.08 c0 6 -4.8 11 -11.32 11 z M112.2 36.24 c3.92 0 6.4 -3.04 6.4 -6.68 l0 -0.08 c0 -3.72 -2.68 -6.8 -6.48 -6.8 c-3.88 0 -6.36 3.04 -6.36 6.72 l0 0.08 c0 3.68 2.68 6.76 6.44 6.76 z M127.88000000000001 37.04 c0 -1.56 1.2 -2.76 2.84 -2.76 c1.6 0 2.8 1.2 2.8 2.76 l0 0.4 c0 1.56 -1.2 2.76 -2.8 2.76 c-1.64 0 -2.84 -1.2 -2.84 -2.76 l0 -0.4 z M159.88000000000002 13 l0 24.8 c0 1.36 -1.08 2.4 -2.4 2.4 c-1.36 0 -2.44 -1.04 -2.44 -2.4 l0 -1.32 c-1.56 2.2 -3.76 3.96 -7.2 3.96 c-4.96 0 -9.8 -3.96 -9.8 -10.96 l0 -0.08 c0 -7 4.76 -10.96 9.8 -10.96 c3.48 0 5.68 1.72 7.2 3.72 l0 -9.16 c0 -1.36 1.08 -2.4 2.4 -2.4 c1.36 0 2.44 1.04 2.44 2.4 z M149 22.64 c-3.32 0 -6.08 2.56 -6.08 6.76 l0 0.08 c0 4.08 2.8 6.76 6.08 6.76 c3.24 0 6.12 -2.72 6.12 -6.76 l0 -0.08 c0 -4.08 -2.88 -6.76 -6.12 -6.76 z M169.60000000000002 27.96 l10.84 0 c-0.32 -3.12 -2.16 -5.56 -5.36 -5.56 c-2.96 0 -5.04 2.28 -5.48 5.56 z M183.24 37.68 c-1.92 1.72 -4.32 2.8 -7.6 2.8 c-6.12 0 -10.84 -4.44 -10.84 -10.96 l0 -0.08 c0 -6.04 4.28 -11 10.32 -11 c6.72 0 10.04 5.52 10.04 10.4 c0 1.36 -1.04 2.32 -2.28 2.32 l-13.24 0 c0.52 3.44 2.96 5.36 6.08 5.36 c2.04 0 3.64 -0.72 5 -1.84 c0.36 -0.28 0.68 -0.44 1.24 -0.44 c1.08 0 1.92 0.84 1.92 1.96 c0 0.6 -0.28 1.12 -0.64 1.48 z M201.68 38.28 c-0.56 1.24 -1.44 2.12 -2.76 2.12 l-0.24 0 c-1.32 0 -2.2 -0.84 -2.76 -2.12 l-7.04 -16.12 c-0.12 -0.36 -0.28 -0.76 -0.28 -1.2 c0 -1.2 1.08 -2.32 2.4 -2.32 s2 0.76 2.4 1.76 l5.44 14 l5.52 -14.08 c0.36 -0.84 1 -1.68 2.28 -1.68 c1.32 0 2.36 1 2.36 2.32 c0 0.44 -0.16 0.92 -0.28 1.16 z"></path></g></svg>